<?xml version="1.0" standalone="no"?>
<!DOCTYPE svg PUBLIC "-//W3C//DTD SVG 20010904//EN"
 "http://www.w3.org/TR/2001/REC-SVG-20010904/DTD/svg10.dtd">
<svg version="1.0" xmlns="http://www.w3.org/2000/svg"
 width="271.000000pt" height="254.000000pt" viewBox="0 0 271.000000 254.000000"
 preserveAspectRatio="xMidYMid meet">

<g transform="translate(0.000000,254.000000) scale(0.100000,-0.100000)"
fill="#000000" stroke="none">
<path d="M210 2303 c-45 -16 -53 -88 -19 -156 12 -23 59 -105 104 -182 45 -77
173 -306 285 -509 186 -337 202 -370 190 -390 -7 -11 -90 -119 -183 -240 -194
-249 -254 -336 -263 -382 -7 -38 16 -88 49 -106 17 -9 181 -13 691 -16 772 -5
843 -2 888 36 l30 26 -5 105 c-2 58 -19 276 -37 484 l-32 378 23 34 c13 18 85
109 160 202 376 467 428 538 448 607 8 30 7 46 -3 71 l-14 32 -167 6 c-198 8
-2123 8 -2145 0z m559 -218 c15 -16 286 -469 330 -553 14 -26 12 -30 -118
-186 -61 -73 -75 -86 -86 -75 -7 8 -93 163 -190 344 -97 182 -195 363 -217
403 l-39 72 23 10 c13 5 80 9 151 7 111 -2 130 -5 146 -22z m703 18 l128 -6
-33 -42 c-57 -75 -373 -450 -391 -464 -10 -8 -20 -10 -26 -5 -14 15 -280 491
-280 502 0 6 17 13 38 15 66 7 433 7 564 0z m756 1 c28 -4 52 -10 52 -13 0
-13 -216 -273 -531 -643 -74 -86 -246 -288 -383 -450 -137 -161 -283 -332
-324 -380 l-76 -88 -196 0 c-108 0 -200 3 -203 7 -8 7 -24 -13 428 533 199
239 472 571 609 738 l247 302 162 0 c89 0 186 -3 215 -6z m-508 -1021 c0 -5 9
-95 20 -202 23 -223 24 -255 10 -246 -19 12 -150 284 -150 311 0 17 18 47 51
85 47 54 69 71 69 52z m-225 -405 c30 -56 58 -112 61 -125 l6 -23 -171 0 c-94
0 -171 4 -171 8 0 15 193 242 206 242 7 0 38 -46 69 -102z"/>
</g>
</svg>
